# xmcd
#
# Track frame offsets:
#	150
#	13517
#	27145
#	40780
#	55897
#	70873
#	85042
#	99626
#	112341
#	129097
#	145063
#	161922
#	176397
#	189541
#	204015
#
# Disc length: 2882
#
# Revision: 2
# Processed by: cddbd v1.5.1PL0 Copyright (c) Steve Scherf et al.
# Submitted via: CDex 1.51
# Normalized: r1:TDELIM( - )
#
DISCID=bf0b400f
DTITLE=Various Artist - All that Country - Disc 2
DYEAR=2003
DGENRE=Country
TTITLE0=K.D.Lang, Brenda Lee, Lorreta Lynn, Kitty \wells - Honky Tonk Angels Medley
TTITLE1=Gene Watson - The Jukebox Played Along
TTITLE2=John Anderson - Swingin'
TTITLE3=Nitty Gritty Dirt Band - Fishin' in the Dark
TTITLE4=Emmylou Harris - Blue Kentuck Girl
TTITLE5=Eddie Rabbit - I love a Rainy Night
TTITLE6=The Forester Sisters - I Fell in Love Again Last Night
TTITLE7=Deanna Cox - Texas Sidestep
TTITLE8=The Doobie Brothers - What a Fool Believes
TTITLE9=Billy Hill - I am just a Rebel
TTITLE10=Terry Joe White - My Kind of Woman
TTITLE11=Clarence Carter - Patches
TTITLE12=The Ranch - Walkin ' the Country
TTITLE13=Highway 101 - Good Goodbye
TTITLE14=Roy Orbison - Hound Dog Man
EXTD=YEAR: 2003
EXTT0=
EXTT1=
EXTT2=
EXTT3=
EXTT4=
EXTT5=
EXTT6=
EXTT7=
EXTT8=
EXTT9=
EXTT10=
EXTT11=
EXTT12=
EXTT13=
EXTT14=
PLAYORDER=
